<?xml version="1.0" encoding="utf-8"?>
<!-- Generator: Adobe Illustrator 28.4.1, SVG Export Plug-In . SVG Version: 6.00 Build 0)  -->
<svg version="1.0" id="Capa_1" xmlns="http://www.w3.org/2000/svg" xmlns:xlink="http://www.w3.org/1999/xlink" x="0px" y="0px"
	 viewBox="0 0 6315.6 3174.6" style="enable-background:new 0 0 6315.6 3174.6;" xml:space="preserve">
<style type="text/css">
	.st0{fill:#FFFFFF;}
</style>
<g>
	<g>
		<path class="st0" d="M2482.9,1258.2c28.5-66.1,52.5-136.8,72-212c19.5-75.2,31.7-149.8,37-223.7c5.2-73.9-3.9-131.6-27.2-173.1
			c-15.6-28.5-39.6-49.9-72-64.2c-32.5-14.2-69.4-17.5-110.9-9.7c-75.3,13-156.3,53.2-243.2,120.6c-86.9,67.5-168,147.2-243.2,239.3
			c-75.3,92.1-140.1,187.4-194.5,286c-54.5,98.6-86.9,184.2-97.3,256.8c-20.8,129.7,19.5,216.6,120.6,260.7
			c57,25.9,124.5,46.7,202.3,62.3c77.8,15.6,155,33.7,231.5,54.5c76.5,20.8,146.5,49.3,210.1,85.6c63.5,36.3,109.5,86.9,138.1,151.7
			c23.3,51.9,31.1,107.7,23.3,167.3c-7.8,59.7-26,118.7-54.5,177c-28.6,58.4-64.9,115.4-108.9,171.2
			c-44.1,55.7-90.1,104.4-138.1,145.9c-48,41.5-95.3,74.5-142,99.2c-46.7,24.6-86.9,37-120.6,37c-77.8,0-124.5-36.3-140.1-108.9
			c-7.8-41.5-0.7-86.9,21.4-136.2c22-49.3,50.6-96.7,85.6-142c35-45.3,72.6-86.2,112.8-122.6c40.2-36.3,72-63.5,95.3-81.7
			c15.6-7.8,29.8-10.3,42.8-7.8c7.8,2.6,14.2,10.4,19.5,23.3c2.6,20.8-9.1,38.9-35,54.5c-51.9,28.6-96.7,62.2-134.2,101.2
			c-37.6,38.9-69.4,77.8-95.3,116.7c-26,38.9-44.7,74.5-56.4,107c-11.7,32.4-16.2,56.4-13.6,72c5.2,36.3,18.1,59,38.9,68.1
			c20.7,9.1,44.7,11.7,72,7.8c27.2-3.9,55.7-13.6,85.6-29.2c29.8-15.6,55.1-31.1,75.9-46.7c44.1-28.6,90.1-69.4,138.1-122.6
			c48-53.2,89.5-110.9,124.5-173.1c35-62.3,59.6-124.5,73.9-186.8c14.2-62.3,11-118-9.7-167.3c-28.6-62.3-79.2-109.5-151.7-142
			c-72.6-32.4-151.7-59-237.3-79.8c-85.6-20.7-169.9-41.5-252.9-62.3c-83-20.7-149.2-50.6-198.4-89.5
			c-75.3-62.2-101.2-160.8-77.8-295.7c15.6-75.2,49.9-160.8,103.1-256.8c53.1-95.9,116.7-188.7,190.6-278.2
			c73.9-89.5,153-168.6,237.3-237.3c84.3-68.7,165.3-113.4,243.2-134.2c116.7-33.7,202.3-19.5,256.8,42.8
			c33.7,46.7,51.8,107,54.5,180.9c2.6,73.9-3.9,152.4-19.5,235.4c-15.6,83-38.3,164.1-68.1,243.2c-29.8,79.1-57.8,147.2-83.7,204.2
			c-5.2,13-13.6,20.8-25.3,23.3c-11.7,2.6-21.4,1.3-29.2-3.9c-20.8-10.3-27.2-24.6-19.5-42.8c5.2-10.3,10.3-18.1,15.6-23.3v-3.9
			C2428.5,1370.4,2454.4,1324.3,2482.9,1258.2z"/>
		<path class="st0" d="M3163.7,2240.5v-81.7c0-10.3,0.6-20.1,1.9-29.2c1.3-9.1,1.9-18.8,1.9-29.2v-11.7c0-2.6-1.3-3.9-3.9-3.9
			c-5.2,7.8-10.4,19.5-15.6,35c-10.4,23.3-20.8,46.1-31.1,68.1c-10.4,22.1-22.1,44.7-35,68.1c-10.4,20.8-21.4,39.6-33.1,56.4
			c-11.7,16.9-24,35.7-37,56.4c-20.8,28.6-44.1,51.9-70,70c-15.6,15.6-37.6,25.9-66.1,31.1c-13,2.6-26,0-38.9-7.8
			c-20.8-5.2-40.2-22-58.4-50.6c-10.4-12.9-18.2-27.2-23.3-42.8c-5.2-15.6-10.4-31.1-15.6-46.7c-5.2-15.6-7.8-31.1-7.8-46.7
			c0-15.6-1.3-31.1-3.9-46.7c-2.6-18.1-3.9-35.6-3.9-52.5c0-16.8,0-34.3,0-52.5c0-15.6,0.7-31.1,1.9-46.7
			c1.3-15.6,3.3-31.1,5.8-46.7c0-7.8,0-16.2,0-25.3c0-9.1,1.3-17.5,3.9-25.3l11.7-70c2.6-10.3,4.5-19.5,5.8-27.2
			c1.3-7.8,3.2-16.8,5.8-27.2c0-10.3,2.6-23.3,7.8-38.9c2.6-10.3,9.1-17.5,19.5-21.4c10.3-3.9,20.7-3.2,31.1,1.9
			c12.9,10.4,20.7,22.1,23.3,35c2.6,13-2.6,24.7-15.6,35c-7.8,7.8-12.3,16.2-13.6,25.3c-1.3,9.1-3.3,17.5-5.8,25.3
			c-5.2,10.4-7.8,20.8-7.8,31.1c0,10.4-1.3,20.8-3.9,31.1c-2.6,5.2-3.9,11.1-3.9,17.5c0,6.5-1.3,12.3-3.9,17.5c0,13,0,24.7,0,35
			c0,10.4-1.3,20.8-3.9,31.1c-2.6,20.8-3.9,42.8-3.9,66.1s0,45.4,0,66.1c0,10.4,0.6,20.1,1.9,29.2c1.3,9.1,3.2,20.1,5.8,33.1
			c2.6,10.4,4.5,20.8,5.8,31.1c1.3,10.4,4.5,20.8,9.7,31.1c7.8,25.9,22,49.3,42.8,70c13,13,28.5,14.3,46.7,3.9
			c13-7.8,23.3-16.2,31.1-25.3c7.8-9.1,16.8-18.8,27.2-29.2c10.3-13,19.5-25.9,27.2-38.9c7.8-13,15.6-25.9,23.3-38.9
			c10.3-10.3,18.1-24.6,23.3-42.8c10.3-15.6,19.5-31.7,27.2-48.6c7.8-16.8,15.6-34.4,23.3-52.5c5.2-12.9,10.3-25.3,15.6-37
			c5.2-11.7,10.3-23.9,15.6-37c12.9-28.5,23.3-55.7,31.1-81.7c5.2-15.6,11-31.7,17.5-48.6c6.4-16.9,12.2-34.4,17.3-52.5
			c2.4-7.8,3.7-15.6,3.7-23.3c0-7.8,1.2-14.2,3.7-19.5c2.4-10.3,6.1-18.1,10.9-23.3c9.7-10.3,19.5-12.9,29.3-7.8
			c2.4,5.2,5.5,9.1,9.3,11.7c3.7,2.6,4.3,6.5,1.7,11.7v46.7c-5.2,20.8-7.8,38.9-7.8,54.5c0,18.2-2.6,40.2-7.8,66.1v42.8
			c-2.6,13-3.3,25.3-1.9,37c1.3,11.7-0.7,24-5.8,37v11.7v194.5c0,5.2,0.6,11.1,1.9,17.5c1.3,6.5,1.9,12.3,1.9,17.5
			c0,5.2-0.7,10.4-1.9,15.6c-1.3,5.2,0.6,10.4,5.8,15.6v11.7c0,13,0.6,24.7,1.9,35c1.3,10.4,3.2,22.1,5.8,35
			c5.2,26,7.8,45.3,7.8,58.4c2.6,5.2,3.9,10.3,3.9,15.6c0,5.2,2.6,10.3,7.8,15.6c0,2.6,0.6,4.5,1.9,5.8c1.3,1.3,1.9,4.5,1.9,9.7
			c0,23.3-9.8,32.4-29.3,27.2c-14.6,0-21.9-7.8-21.9-23.3c-2.5-10.4-4.9-19.5-7.4-27.2c-2.4-7.8-3.7-16.9-3.7-27.2
			c0-7.8-0.7-15-1.9-21.4c-1.3-6.4-3.3-13.6-5.8-21.4v-7.8c2.6-10.3,2.6-20.7,0-31.1c-2.6-10.3-3.9-20.7-3.9-31.1
			c-2.6-13-3.3-25.9-1.9-38.9c1.3-13,0.6-25.9-1.9-38.9c-5.2-15.6-7.2-31.1-5.8-46.7C3163.1,2267.8,3163.7,2253.5,3163.7,2240.5z"/>
		<path class="st0" d="M4373.7,1937.1c-20.8,72.6-40.9,153.7-60.3,243.2c-19.5,89.5-48.6,173.1-87.5,250.9
			c-20.8,38.9-50.6,49.3-89.5,31.1c-23.3-23.3-41.5-53.8-54.5-91.4c-13-37.6-23.3-79.8-31.1-126.4c-7.8-46.7-14.3-95.3-19.5-145.9
			c-5.2-50.6-11.7-99.2-19.5-145.9c0-2.6-0.7-4.5-1.9-5.8c-1.3-1.3-1.9-3.2-1.9-5.8c-2.6-5.2-5.2-6.4-7.8-3.9l-11.7,23.3
			c-10.4,20.8-19.5,42.2-27.2,64.2c-7.8,22.1-14.3,43.5-19.5,64.2c-13,36.4-24.7,72.6-35,108.9c-10.4,36.4-20.8,72.6-31.1,108.9
			c-5.2,20.8-10.4,39.6-15.6,56.4c-5.2,16.9-10.4,35.7-15.6,56.4c-2.6,7.8-5.2,16.2-7.8,25.3c-2.6,9.1-7.8,17.5-15.6,25.3
			c-20.8,20.8-40.2,18.2-58.4-7.8c-5.2-7.8-8.4-16.2-9.7-25.3c-1.3-9.1-3.3-17.5-5.8-25.3c-2.6-7.8-5.2-28.5-7.8-62.2
			c-2.6-33.7-5.2-70-7.8-108.9c-2.6-38.9-4.6-75.9-5.8-110.9c-1.3-35-1.9-59-1.9-72c2.6-25.9,3.2-51.2,1.9-75.9
			c-1.3-24.6-0.7-49.9,1.9-75.9c5.2-38.9,6.4-77.1,3.9-114.8c-2.6-37.6-3.9-75.9-3.9-114.8c0-12.9-3.9-15.6-11.7-7.8
			c-31.1,46.7-62.9,98.6-95.3,155.6c-32.5,57.1-61.6,116.7-87.5,179c-25.9,62.3-45.4,126.5-58.4,192.6
			c-13,66.1-16.9,134.2-11.7,204.3c-2.6,18.2-3.9,35-3.9,50.6c0,15.6-1.3,32.5-3.9,50.6c0,15.6-1.3,27.2-3.9,35
			c0,18.1-7.8,28.5-23.3,31.1c-10.4,5.2-18.2,1.3-23.3-11.7c-2.6-5.2-5.2-10.4-7.8-15.6c-2.6-5.2-3.9-11.7-3.9-19.5v-15.6
			c0-20.7,0-42.8,0-66.1c0-23.3-1.3-46.7-3.9-70c-2.6-36.3-3.3-70.6-1.9-103.1c1.3-32.4,0.6-60.3-1.9-83.7
			c-2.6-72.6-2.6-134.8,0-186.7c2.6-51.8,3.9-111.5,3.9-179c0-5.2,0.6-10.3,1.9-15.6c1.3-5.2,0.6-10.3-1.9-15.6
			c-2.6-5.2-2.6-11.7,0-19.5c2.6-7.8,6.4-12.9,11.7-15.6c7.8-5.2,16.9-5.8,27.2-1.9c10.3,3.9,16.8,11.1,19.5,21.4
			c5.2,10.4,5.2,19.5,0,27.2c-2.6,7.8-3.9,19.5-3.9,35c-2.6,36.4-3.9,64.2-3.9,83.7s0,38.9,0,58.4s0,41.5,0,66.1
			c0,24.7,0,59,0,103.1v-3.9c2.6-31.1,14.9-77.1,37-138.1c22-60.9,47.3-121.2,75.9-180.9c28.5-59.6,58.4-111.5,89.5-155.6
			c31.1-44.1,57-66.1,77.8-66.1c23.3,0,40.2,10.4,50.6,31.1c10.3,20.8,16.8,44.7,19.5,72c2.6,27.2,3.2,54.5,1.9,81.7
			c-1.3,27.2-1.9,47.4-1.9,60.3c0,18.2,0,36.4,0,54.5c0,18.2-1.3,36.4-3.9,54.5c-5.2,26-7.2,51.9-5.8,77.8
			c1.3,25.9,1.9,51.9,1.9,77.8c0,28.6,0,64.9,0,108.9c0,44.1,2.6,85.6,7.8,124.5c0,2.6,1.3,5.2,3.9,7.8c2.6,2.6,3.9,5.2,3.9,7.8
			c0-2.6,1.3-5.2,3.9-7.8c5.2-20.7,9.1-37.6,11.7-50.6l35-116.7c10.3-33.7,20.7-66.7,31.1-99.2c10.3-32.4,22-65.5,35-99.2
			c5.2-15.6,11-29.8,17.5-42.8c6.4-13,13.6-25.9,21.4-38.9c13-20.7,28.5-31.1,46.7-31.1c15.6-2.6,28.5,5.2,38.9,23.3
			c7.8,10.4,14.2,27.2,19.5,50.6c5.2,23.3,10.3,59.7,15.6,108.9c5.2,49.3,11.7,99.9,19.5,151.7c7.8,51.9,18.1,98.6,31.1,140.1
			c12.9,41.5,29.8,67.5,50.6,77.8c18.1,0,35-23.3,50.6-70c15.6-46.7,29.8-100.5,42.8-161.5c13-60.9,25.9-119.3,38.9-175.1
			c12.9-55.7,27.2-92.7,42.8-110.9c5.2-5.2,9.7-5.8,13.6-1.9c3.9,3.9,7.1,8.5,9.7,13.6V1937.1z"/>
		<path class="st0" d="M5315.2,1937.1c-20.8,72.6-40.9,153.7-60.3,243.2c-19.5,89.5-48.6,173.1-87.5,250.9
			c-20.8,38.9-50.6,49.3-89.5,31.1c-23.3-23.3-41.5-53.8-54.5-91.4c-13-37.6-23.3-79.8-31.1-126.4c-7.8-46.7-14.3-95.3-19.5-145.9
			c-5.2-50.6-11.7-99.2-19.5-145.9c0-2.6-0.7-4.5-1.9-5.8c-1.3-1.3-1.9-3.2-1.9-5.8c-2.6-5.2-5.2-6.4-7.8-3.9l-11.7,23.3
			c-10.4,20.8-19.5,42.2-27.2,64.2c-7.8,22.1-14.3,43.5-19.5,64.2c-13,36.4-24.7,72.6-35,108.9c-10.4,36.4-20.8,72.6-31.1,108.9
			c-5.2,20.8-10.4,39.6-15.6,56.4c-5.2,16.9-10.4,35.7-15.6,56.4c-2.6,7.8-5.2,16.2-7.8,25.3c-2.6,9.1-7.8,17.5-15.6,25.3
			c-20.8,20.8-40.2,18.2-58.4-7.8c-5.2-7.8-8.4-16.2-9.7-25.3c-1.3-9.1-3.3-17.5-5.8-25.3c-2.6-7.8-5.2-28.5-7.8-62.2
			c-2.6-33.7-5.2-70-7.8-108.9c-2.6-38.9-4.6-75.9-5.8-110.9c-1.3-35-1.9-59-1.9-72c2.5-25.9,3.2-51.2,1.9-75.9
			c-1.3-24.6-0.7-49.9,1.9-75.9c5.2-38.9,6.4-77.1,3.9-114.8c-2.6-37.6-3.9-75.9-3.9-114.8c0-12.9-3.9-15.6-11.7-7.8
			c-31.1,46.7-62.9,98.6-95.3,155.6c-32.5,57.1-61.6,116.7-87.5,179c-25.9,62.3-45.4,126.5-58.4,192.6
			c-13,66.1-16.9,134.2-11.7,204.3c-2.6,18.2-3.9,35-3.9,50.6c0,15.6-1.3,32.5-3.9,50.6c0,15.6-1.3,27.2-3.9,35
			c0,18.1-7.8,28.5-23.3,31.1c-10.4,5.2-18.2,1.3-23.3-11.7c-2.6-5.2-5.2-10.4-7.8-15.6c-2.6-5.2-3.9-11.7-3.9-19.5v-15.6
			c0-20.7,0-42.8,0-66.1c0-23.3-1.3-46.7-3.9-70c-2.6-36.3-3.3-70.6-1.9-103.1c1.3-32.4,0.6-60.3-1.9-83.7
			c-2.6-72.6-2.6-134.8,0-186.7c2.5-51.8,3.9-111.5,3.9-179c0-5.2,0.6-10.3,1.9-15.6c1.3-5.2,0.6-10.3-1.9-15.6
			c-2.6-5.2-2.6-11.7,0-19.5c2.5-7.8,6.4-12.9,11.7-15.6c7.8-5.2,16.9-5.8,27.2-1.9c10.3,3.9,16.8,11.1,19.5,21.4
			c5.2,10.4,5.2,19.5,0,27.2c-2.6,7.8-3.9,19.5-3.9,35c-2.6,36.4-3.9,64.2-3.9,83.7s0,38.9,0,58.4s0,41.5,0,66.1
			c0,24.7,0,59,0,103.1v-3.9c2.5-31.1,14.9-77.1,37-138.1c22-60.9,47.3-121.2,75.9-180.9c28.5-59.6,58.4-111.5,89.5-155.6
			c31.1-44.1,57-66.1,77.8-66.1c23.3,0,40.2,10.4,50.6,31.1c10.3,20.8,16.8,44.7,19.5,72c2.6,27.2,3.2,54.5,1.9,81.7
			c-1.3,27.2-1.9,47.4-1.9,60.3c0,18.2,0,36.4,0,54.5c0,18.2-1.3,36.4-3.9,54.5c-5.2,26-7.2,51.9-5.8,77.8
			c1.3,25.9,1.9,51.9,1.9,77.8c0,28.6,0,64.9,0,108.9c0,44.1,2.5,85.6,7.8,124.5c0,2.6,1.3,5.2,3.9,7.8c2.5,2.6,3.9,5.2,3.9,7.8
			c0-2.6,1.3-5.2,3.9-7.8c5.2-20.7,9.1-37.6,11.7-50.6l35-116.7c10.3-33.7,20.7-66.7,31.1-99.2c10.3-32.4,22-65.5,35-99.2
			c5.2-15.6,11-29.8,17.5-42.8c6.4-13,13.6-25.9,21.4-38.9c13-20.7,28.5-31.1,46.7-31.1c15.6-2.6,28.5,5.2,38.9,23.3
			c7.8,10.4,14.2,27.2,19.5,50.6c5.2,23.3,10.3,59.7,15.6,108.9c5.2,49.3,11.7,99.9,19.5,151.7c7.8,51.9,18.1,98.6,31.1,140.1
			c12.9,41.5,29.8,67.5,50.6,77.8c18.1,0,35-23.3,50.6-70c15.6-46.7,29.8-100.5,42.8-161.5c13-60.9,25.9-119.3,38.9-175.1
			c12.9-55.7,27.2-92.7,42.8-110.9c5.2-5.2,9.7-5.8,13.6-1.9c3.9,3.9,7.1,8.5,9.7,13.6V1937.1z"/>
		<path class="st0" d="M5657.5,1941c2.6,2.6,3.9,9.1,3.9,19.5c-2.6,7.8-5.2,13.6-7.8,17.5c-2.6,3.9-5.2,11.1-7.8,21.4
			c-15.6,67.5-34.4,127.1-56.4,179c-22.1,51.9-44.7,108.9-68.1,171.2c-7.8,13-15.6,29.2-23.3,48.6s-16.9,38.3-27.2,56.4
			c-10.4,18.2-22.7,33.7-37,46.7c-14.3,13-31.8,19.5-52.5,19.5c-36.4,0-63.6-18.8-81.7-56.4c-18.2-37.6-31.1-84.9-38.9-142
			c-7.8-57-10.3-119.3-7.8-186.7c2.6-67.4,7.8-131.6,15.6-192.6c7.8-60.9,17.5-113.4,29.2-157.6c11.7-44.1,21.4-71.3,29.2-81.7
			c2.6-5.2,3.9-9,3.9-11.7c0-2.6,2.6-6.4,7.8-11.7c28.5-15.6,49.2-9.1,62.3,19.5c2.5,5.2,5.2,11.1,7.8,17.5
			c2.5,6.5,3.9,13.6,3.9,21.4c0,13-5.8,20.8-17.5,23.3c-11.7,2.6-20.1,10.4-25.3,23.3c-20.8,62.3-36.4,127.8-46.7,196.5
			c-10.4,68.8-15.6,134.9-15.6,198.4c0,63.6,3.9,120,11.7,169.2c7.8,49.3,19.5,84.3,35,105c15.6,20.8,33.1,24,52.5,9.7
			c19.5-14.2,40.9-53.8,64.2-118.7c23.3-67.4,48.6-130.9,75.9-190.6c27.2-59.6,47.3-125.8,60.3-198.4c5.2-20.7,14.2-31.1,27.2-31.1
			C5647.1,1925.4,5654.8,1930.6,5657.5,1941z M5443.5,1474.1c0,5.2-1.3,9.7-3.9,13.6c-2.6,3.9-5.2,8.4-7.8,13.6
			c-5.2,7.8-11.1,16.2-17.5,25.3c-6.5,9.1-13.6,17.5-21.4,25.3c-2.6,7.8-10.4,11.7-23.3,11.7c-18.2,0-31.8-13.6-40.9-40.9
			c-9.1-27.2-11.1-47.3-5.8-60.3c2.6-10.3,8.4-16.2,17.5-17.5c9.1-1.3,16.2,1.9,21.4,9.7l3.9,3.9c0,2.6,1.3,3.9,3.9,3.9h3.9
			c7.8-7.8,14.2-13,19.5-15.6l11.7-11.7c15.6-2.6,25.9,0,31.1,7.8c7.8,2.6,11.7,11.7,11.7,27.2L5443.5,1474.1z"/>
		<path class="st0" d="M6209.9,1244.5c15.6,7.8,23.3,18.2,23.3,31.1c-2.6,5.2-7.8,10.4-15.6,15.6c-7.8,5.2-14.3,7.8-19.5,7.8
			c-7.8,0-36.4,0.7-85.6,1.9c-49.3,1.3-102.5,1.9-159.5,1.9c-57.1,0-107.7-0.6-151.7-1.9c-44.1-1.3-63.6-1.9-58.4-1.9v3.9
			c-10.4,67.5-22.1,149.2-35,245.1c-13,96-24,197.1-33.1,303.5c-9.1,106.4-16.2,212-21.4,317.1c-5.2,105-5.8,199.7-1.9,284
			c3.9,84.3,12.3,152.3,25.3,204.3c12.9,51.8,32.4,77.8,58.4,77.8c7.8,0,13.6-0.7,17.5-1.9c3.9-1.3,8.4,0.6,13.6,5.8
			c10.3,5.2,15.6,12.9,15.6,23.3c0,18.1-3.9,32.4-11.7,42.8c-15.6,10.3-27.2,15.6-35,15.6c-13,0-23.3-3.9-31.1-11.7
			c-28.6-18.2-53.2-64.9-73.9-140.1c-20.8-75.3-33.1-176.4-37-303.5c-3.9-127.1,1.9-278.8,17.5-455.2
			c15.6-176.4,42.8-376,81.7-599.1V1299c-13,5.2-31.8,7.2-56.4,5.8c-24.7-1.3-52.5-0.6-83.7,1.9c-7.8,2.6-15.6,0-23.3-7.8
			c-7.8-7.8-10.3-14.2-7.8-19.5c0-20.7,13-28.5,38.9-23.3c5.2,0,16.9,0.7,35,1.9c18.1,1.3,36.3,1.9,54.5,1.9c18.1,0,33.1,0,44.7,0
			c11.7,0,13.6-1.3,5.8-3.9c0-2.6,3.9-25.9,11.7-70c7.8-44.1,16.2-91.4,25.3-142c9-50.6,17.5-95.9,25.3-136.2
			c7.8-40.2,11.7-59,11.7-56.4c2.5-2.6,2.5-6.4,0-11.7c-5.2-18.1,0-40.2,15.6-66.1c10.3-10.3,20.7-15.6,31.1-15.6
			c10.3,0,19.5,6.5,27.2,19.5c12.9,31.1,12.9,54.5,0,70v3.9l-3.9,3.9c-7.8,2.6-14.3,11.7-19.5,27.2v3.9
			c-5.2,15.6-14.9,59.7-29.2,132.3c-14.3,72.6-27.9,149.2-40.9,229.5c-2.6,2.6-3.9,5.2-3.9,7.8c2.6,0,25.9,0,70,0
			c44.1,0,92.7-0.6,145.9-1.9c53.1-1.3,102.4-2.6,147.9-3.9c45.3-1.3,69.4-3.2,72-5.8c5.2,0,9.1-0.6,11.7-1.9
			C6200.8,1241.3,6204.7,1242,6209.9,1244.5z"/>
	</g>
</g>
<g>
	<path class="st0" d="M670.7,1655.3c23.4-15.3,44.8-33,69.2-44.6c151.8-72.9,313.2,47.1,332.8,193.5c21.3,158.7-22.5,304.8-96,439.5
		c-74.9,137.4-165.2,266.6-252.3,397c-34.7,52-69.6,53.3-111.3,8c-115.6-125.7-219.7-260.1-302.5-410.2
		c-78.1-141.6-136.3-290.9-163.2-450c-28.7-169-28.3-338.9,4.4-508.7c48.1-250.1,155.2-473,304.9-676.3
		C507.3,534.7,567.5,473.1,623,408c28.2-33.1,57.9-30.2,89.5-5.6c178.2,138.9,327.7,303.5,444.6,497.2
		c75.9,125.7,132.1,260.1,170.4,401.4c38.5,142.1,47,287.7,40.9,434.6c-15.6,377.8-162.4,707-377.4,1009.3
		c-84.4,118.7-178,230.9-270.4,343.6c-13.7,16.7-44,25.6-67.1,26.3c-12.6,0.4-36-23.1-36.8-36.9c-1.4-21.5,7-48.1,20.5-65.4
		c76.5-98.4,158.4-192.8,233.5-292.3c107.9-142.8,199.8-295.9,260.4-465c40.3-112.4,82.6-226.1,103.3-342.9
		c20.2-113.9,21.7-232.8,18-349.1c-6.7-208.3-76.8-399.3-179.3-579.5c-95.5-167.9-219-312-364.1-438.8
		c-29.1-25.5-47.5-15.7-68.3,9.3c-128.5,153.8-235.3,319.5-307.8,508.3c-62,161.6-93.2,326.6-92.3,498.8
		c1.1,203.6,47.4,397.3,148.1,573.1c72,125.8,161.1,241.8,242.7,362.1c21.2,31.2,38,31.1,61.3-1.6
		c106.1-148.4,200.8-303.8,251-479.5c19.7-68.9,17.6-148.5,6.8-220.4c-13.8-91.4-132-119.6-198.1-53.9
		c-84.9,84.4-84.9,84.4-167.1-0.3c-45.1-46.5-76.7-51.6-138-23.1c-34.8,16.2-71.5,25.1-94.2-15.3c-23.9-42.5,7.7-67.1,39.7-85.6
		c73.4-42.6,147.8-43.4,221.3,0.7C633.3,1629.2,651.5,1642.5,670.7,1655.3z"/>
</g>
</svg>
